<?xml version="1.0"?>
<svg xmlns="http://www.w3.org/2000/svg" xmlns:xlink="http://www.w3.org/1999/xlink" xmlns:svgjs="http://svgjs.com/svgjs" version="1.1" width="30" height="30" x="0" y="0" viewBox="0 0 290 290" style="enable-background:new 0 0 512 512" xml:space="preserve" class=""><g transform="matrix(6.123233995736766e-17,1,-1,6.123233995736766e-17,290,0)">
<g xmlns="http://www.w3.org/2000/svg">
	<path d="M255,110c-19.299,0-35,15.701-35,35s15.701,35,35,35s35-15.701,35-35S274.299,110,255,110z" fill="#e2e0b8" data-original="#000000" style="" class=""/>
	<path d="M35,110c-19.299,0-35,15.701-35,35s15.701,35,35,35s35-15.701,35-35S54.299,110,35,110z" fill="#e2e0b8" data-original="#000000" style="" class=""/>
	<path d="M145,110c-19.299,0-35,15.701-35,35s15.701,35,35,35s35-15.701,35-35S164.299,110,145,110z" fill="#e2e0b8" data-original="#000000" style="" class=""/>
</g>
<g xmlns="http://www.w3.org/2000/svg">
</g>
<g xmlns="http://www.w3.org/2000/svg">
</g>
<g xmlns="http://www.w3.org/2000/svg">
</g>
<g xmlns="http://www.w3.org/2000/svg">
</g>
<g xmlns="http://www.w3.org/2000/svg">
</g>
<g xmlns="http://www.w3.org/2000/svg">
</g>
<g xmlns="http://www.w3.org/2000/svg">
</g>
<g xmlns="http://www.w3.org/2000/svg">
</g>
<g xmlns="http://www.w3.org/2000/svg">
</g>
<g xmlns="http://www.w3.org/2000/svg">
</g>
<g xmlns="http://www.w3.org/2000/svg">
</g>
<g xmlns="http://www.w3.org/2000/svg">
</g>
<g xmlns="http://www.w3.org/2000/svg">
</g>
<g xmlns="http://www.w3.org/2000/svg">
</g>
<g xmlns="http://www.w3.org/2000/svg">
</g>
</g></svg>
